<mxfile host="app.diagrams.net" modified="2023-07-12T08:12:56.084Z" agent="Mozilla/5.0 (Windows NT 10.0; Win64; x64) AppleWebKit/537.36 (KHTML, like Gecko) Chrome/114.0.0.0 Safari/537.36" version="21.2.9" etag="xR2YZu0wm60zpTm-E4SD" type="github">
  <diagram name="Page-1" id="TtmPXhJnLbgbrig8Q9vj">
    <mxGraphModel>
      <root>
        <mxCell id="0" />
        <mxCell id="1" parent="0" />
      </root>
    </mxGraphModel>
  </diagram>
</mxfile>
